<svg width="36" height="37" viewBox="0 0 36 37" fill="none" xmlns="http://www.w3.org/2000/svg">
<g clip-path="url(#clip0_184_110)">
<path fill-rule="evenodd" clip-rule="evenodd" d="M34.0248 24.5989L23.4394 5.85813H23.4338C22.436 3.74586 20.3178 2.26839 17.8596 2.22906C15.3958 2.26839 13.2776 3.74586 12.2854 5.85813H12.2798L1.68327 24.5989C0.00543326 27.5426 0.947473 31.2503 3.86835 32.9413C4.79367 33.475 5.84719 33.7502 6.91187 33.7502C7.00663 33.7502 7.07352 33.7502 7.19615 33.7502H28.5175C28.6401 33.7502 28.707 33.7502 28.8017 33.7502C29.8664 33.7502 30.9199 33.4806 31.8453 32.9413C34.7661 31.2503 35.7082 27.5426 34.0303 24.5989H34.0248ZM17.7481 5.85813C19.2308 5.85813 20.4349 7.07156 20.4349 8.56588C20.4349 10.0602 19.2308 11.2736 17.7481 11.2736C16.2654 11.2736 15.0613 10.0602 15.0613 8.56588C15.0613 7.07156 16.2654 5.85813 17.7481 5.85813ZM19.766 30.1156H8.9353C6.01999 30.1156 4.2028 26.9303 5.67439 24.3911L11.3824 14.4814C12.0791 13.2792 13.6176 12.8691 14.8105 13.5713C16.0034 14.2735 16.4103 15.824 15.7135 17.0262L11.0925 25.0596H19.7715C21.1539 25.0596 22.2799 26.1888 22.2799 27.5876C22.2799 28.9864 21.1595 30.1156 19.7715 30.1156H19.766ZM29.9779 29.8571C28.7794 30.5537 27.2465 30.138 26.5553 28.9246L19.7548 17.0094C19.0636 15.8015 19.4761 14.2567 20.6801 13.5601C21.8786 12.8635 23.4115 13.2792 24.1027 14.4926L30.9032 26.4078C31.5944 27.6157 31.1819 29.1605 29.9779 29.8571Z" fill="url(#paint0_linear_184_110)"/>
</g>
<defs>
<linearGradient id="paint0_linear_184_110" x1="17.854" y1="34.0367" x2="17.854" y2="3.26273" gradientUnits="userSpaceOnUse">
<stop stop-color="#9E7CFF"/>
<stop offset="1" stop-color="#C78EFF"/>
</linearGradient>
<clipPath id="clip0_184_110">
<rect width="35.6749" height="35.9536" fill="white" transform="translate(0.0166016 0.40332)"/>
</clipPath>
</defs>
</svg>
